<?xml version="1.0" encoding="UTF-8" standalone="no"?>
<!-- Created with Inkscape (http://www.inkscape.org/) -->

<svg
   xmlns:dc="http://purl.org/dc/elements/1.1/"
   xmlns:cc="http://creativecommons.org/ns#"
   xmlns:rdf="http://www.w3.org/1999/02/22-rdf-syntax-ns#"
   xmlns:svg="http://www.w3.org/2000/svg"
   xmlns="http://www.w3.org/2000/svg"
   xmlns:sodipodi="http://sodipodi.sourceforge.net/DTD/sodipodi-0.dtd"
   xmlns:inkscape="http://www.inkscape.org/namespaces/inkscape"
   id="svg3355"
   version="1.1"
   inkscape:version="0.91 r13725"
   xml:space="preserve"
   width="512"
   height="512"
   viewBox="0 0 512 512"
   sodipodi:docname="ChaiLove_Concept.svg"><metadata
     id="metadata3361"><rdf:RDF><cc:Work
         rdf:about=""><dc:format>image/svg+xml</dc:format><dc:type
           rdf:resource="http://purl.org/dc/dcmitype/StillImage" /><dc:title></dc:title></cc:Work></rdf:RDF></metadata><defs
     id="defs3359"><clipPath
       clipPathUnits="userSpaceOnUse"
       id="clipPath3369"><path
         d="M 0,512 512,512 512,0 0,0 0,512 Z"
         id="path3371"
         inkscape:connector-curvature="0" /></clipPath></defs><sodipodi:namedview
     pagecolor="#ffffff"
     bordercolor="#666666"
     borderopacity="1"
     objecttolerance="10"
     gridtolerance="10"
     guidetolerance="10"
     inkscape:pageopacity="0"
     inkscape:pageshadow="2"
     inkscape:window-width="640"
     inkscape:window-height="480"
     id="namedview3357"
     showgrid="false"
     inkscape:zoom="1.3578125"
     inkscape:cx="227.94016"
     inkscape:cy="202.16341"
     inkscape:current-layer="g3363" /><g
     id="g3363"
     inkscape:groupmode="layer"
     inkscape:label="ChaiLove_Concept"
     transform="matrix(1.25,0,0,-1.25,0,512)"><g
       id="g3365"
       transform="scale(0.8,0.8)"><g
         id="g3367"
         clip-path="url(#clipPath3369)"><g
           id="g3373"
           transform="translate(420.5537,452.1074)"><path
             d="m 0,0 0,0 -329.107,-392.215 c 108.307,-90.881 269.78,-76.753 360.661,31.554 C 122.435,-252.354 108.307,-90.88 0,0"
             style="fill:#166385;fill-opacity:1;fill-rule:nonzero;stroke:none"
             id="path3375"
             inkscape:connector-curvature="0" /></g><g
           id="g3377"
           transform="translate(420.5537,452.1074)"><path
             d="m 0,0 0,0 -329.107,-392.215 c -108.308,90.881 -122.435,252.354 -31.554,360.661 C -269.781,76.753 -108.308,90.88 0,0"
             style="fill:#81d8ff;fill-opacity:1;fill-rule:nonzero;stroke:none"
             id="path3379"
             inkscape:connector-curvature="0" /></g><g
           id="g3381"
           transform="translate(231.2832,165.6094)"><path
             d="m 0,0 c 6.729,-2.506 13.315,-5.522 20.208,-7.433 43.545,-12.069 84.679,-4.085 123.354,17.161 60.997,33.505 90.844,102.135 72.651,166.119 -12.296,43.244 -42.948,70.091 -83.092,86.151 -71.663,28.669 -143.632,24.703 -214.548,-2.971 -53.583,-20.91 -95.907,-55.228 -120.047,-108.949 -11.114,-24.733 -15.963,-50.815 -16.11,-80.069 1.825,2.955 2.48,3.913 3.034,4.927 43.361,79.348 108.286,128.824 198.905,140.793 46.744,6.174 89.8,-5.757 127.065,-35.139 33.236,-26.207 39.342,-64.744 16.186,-100.371 -19.382,-29.822 -46.64,-48.49 -82.062,-54.53 -35.09,-5.983 -67.499,16.288 -74.851,51.452 6.221,25.466 25.515,40.602 50.785,39.84 21.685,-0.653 31.644,-12.963 27.955,-34.485 -0.047,-0.269 0.71,-0.676 1.096,-1.014 16.937,17.813 11.66,42.021 -11.598,52.611 C 22.358,141.638 5.365,140.69 -11.6,135.677 -48.792,124.687 -70.602,93.714 -66.789,57.595 -63.775,29.056 -32.538,2.118 0,0"
             style="fill:#fdfdfc;fill-opacity:1;fill-rule:nonzero;stroke:none"
             id="path3383"
             inkscape:connector-curvature="0" /></g><g
           id="g3385"
           transform="translate(490.0342,217.0254)"><path
             d="m 0,0 c -11.717,-43.247 -35.654,-78.707 -72.131,-103.816 -84.931,-58.464 -176.971,-70.778 -273.644,-34.013 -42.494,16.159 -74.283,45.929 -82.996,92.597 -11.544,61.83 8.25,113.271 60.168,149.617 42.359,29.654 89.55,39.667 140.389,25.194 6.191,-1.763 11.931,-5.108 17.881,-7.719 27.83,-19.12 38.732,-44.826 32.213,-74.897 -1.233,-5.681 -2.396,-0.674 -3.613,-0.428 -8.621,35.871 -39.157,57.426 -76.299,50.603 -42.609,-7.828 -73.75,-32.296 -89.866,-73.131 -11.013,-27.902 -2.749,-56.71 20.954,-77.376 33.766,-29.44 73.823,-43.016 118.041,-40.002 95.984,6.542 164.173,56.825 211.126,138.729 1.365,2.382 2.878,4.68 4.322,7.017 C 6.545,44.201 2.502,9.231 0,0"
             style="fill:#aee7ff;fill-opacity:1;fill-rule:nonzero;stroke:none"
             id="path3387"
             inkscape:connector-curvature="0" /></g><g
           id="g3389"
           transform="translate(201.9761,242.75)"><path
             d="m 0,0 c 7.353,-35.164 39.761,-57.435 74.851,-51.451 35.422,6.04 62.68,24.708 82.063,54.529 23.155,35.627 17.049,74.164 -16.187,100.371 -37.265,29.383 -80.321,41.313 -127.065,35.139 -90.619,-11.969 -155.544,-61.444 -198.905,-140.793 -0.554,-1.014 -1.209,-1.972 -3.034,-4.927 0.147,29.254 4.996,55.337 16.11,80.07 24.14,53.72 66.464,88.038 120.047,108.948 70.916,27.674 142.885,31.64 214.548,2.971 40.144,-16.059 70.796,-42.906 83.092,-86.151 18.193,-63.984 -11.654,-132.613 -72.651,-166.119 -38.675,-21.245 -79.809,-29.23 -123.353,-17.16 -6.894,1.91 -13.48,4.927 -20.216,7.433 -1.929,1.55 -3.791,3.18 -5.783,4.632 C -0.052,-55.33 -10.062,-28.412 -3.478,-0.039 -2.239,5.302 -1.155,0.212 0,0"
             style="fill:#25aae1;fill-opacity:1;fill-rule:nonzero;stroke:none"
             id="path3391"
             inkscape:connector-curvature="0" /></g><g
           id="g3393"
           transform="translate(308.3008,263.5605)"><path
             d="M 0,0 C 1.218,-0.246 2.381,-5.253 3.613,0.428 10.133,30.499 -0.77,56.205 -28.6,75.325 -19.603,77.484 -11.94,73.124 -4.426,69.64 19.533,58.532 36.595,41.568 37.883,13.538 39.19,-14.919 25.747,-35.898 1.985,-50.271 c -19.869,-12.017 -41.635,-16.065 -64.18,-9.528 -27.017,7.833 -35.815,34.139 -18.49,54.005 2.175,-2.069 0.905,-4.573 0.86,-6.737 -0.315,-15.174 7.805,-24.819 22.872,-26.978 C -28.922,-43.527 -6.022,-27.642 0,0"
             style="fill:#25aae1;fill-opacity:1;fill-rule:nonzero;stroke:none"
             id="path3395"
             inkscape:connector-curvature="0" /></g><g
           id="g3397"
           transform="translate(201.9761,242.75)"><path
             d="m 0,0 c -1.155,0.212 -2.239,5.302 -3.478,-0.039 -6.584,-28.373 3.426,-55.291 26.995,-72.469 1.992,-1.452 3.854,-3.082 5.783,-4.632 -32.53,2.118 -63.768,29.055 -66.781,57.594 -3.814,36.119 17.996,67.092 55.189,78.083 16.964,5.013 33.957,5.961 50.53,-1.584 C 91.497,46.363 96.773,22.155 79.834,4.34 79.45,4.68 78.693,5.086 78.74,5.355 82.429,26.877 72.47,39.188 50.785,39.841 25.515,40.603 6.221,25.466 0,0"
             style="fill:#aee7ff;fill-opacity:1;fill-rule:nonzero;stroke:none"
             id="path3399"
             inkscape:connector-curvature="0" /></g><g
           id="g3401"
           transform="translate(393.167,279.3335)"><path
             d="m 0,0 c -3.667,54.333 -50.667,81.667 -84.666,83.447 -31.445,1.647 -49.206,-23.516 -51.697,-27.306 -0.197,-0.299 -0.529,-0.474 -0.887,-0.474 -0.358,0 -0.691,0.175 -0.888,0.474 -2.491,3.79 -20.252,28.953 -51.696,27.306 C -223.833,81.667 -270.833,54.333 -274.5,0 c -3.667,-54.333 54.333,-104.333 64,-112.333 9.383,-7.766 69.64,-48.191 73.167,-50.556 l 0,-0.111 c 0,0 0.033,0.023 0.083,0.055 0.049,-0.032 0.083,-0.055 0.083,-0.055 l 0,0.111 c 3.527,2.365 63.783,42.79 73.167,50.556 9.667,8 67.667,58 64,112.333"
             style="fill:#ffffff;fill-opacity:1;fill-rule:nonzero;stroke:none"
             id="path3403"
             inkscape:connector-curvature="0" /></g></g></g></g></svg>